<svg fill="none" height="48" viewBox="0 0 48 48" width="48" xmlns="http://www.w3.org/2000/svg"><g clip-rule="evenodd" fill-rule="evenodd"><path d="m7.125 40.125v-14.8125h27l8.5679-20.17035c.7277.684 1.1821 1.65534 1.1821 2.73282v32.25003c0 2.071-1.6789 3.75-3.75 3.75h-29.25c-2.07107 0-3.75-1.679-3.75-3.75z" fill="#009bb0"/><path d="m40.1243 4.125h-9.7702l-5.4159 12.75h-21.36524l-2.896723 6.8064c-.6315975 1.4841.457433 3.1311 2.070303 3.1311h30.72216l9.2229-21.67092c-.671-.6304-1.5741-1.01658-2.5673-1.01658z" fill="#5fc8d6"/><path d="m8.03032 6.40887c.5882-1.38473 1.94704-2.28387 3.45148-2.28387h12.7192l-3.2402 7.3125h-15.06654z" fill="#5fc8d6"/></g><path d="m33.4688 26.8125 9.2602 16.0109c.7066-.682 1.146-1.6389 1.146-2.6985v-32.2499c0-1.07748-.4544-2.04882-1.1821-2.73283z" fill="#008294"/></svg>