<svg width="20" height="20" viewBox="0 0 20 20" fill="none" xmlns="http://www.w3.org/2000/svg">
<path d="M13.3138 5.49083L8.95043 8.10028M9.14068 12.0761L12.6156 13.652M9.375 10.3125C9.375 12.5562 7.55616 14.375 5.3125 14.375C3.06884 14.375 1.25 12.5562 1.25 10.3125C1.25 8.06885 3.06884 6.25 5.3125 6.25C7.55616 6.25 9.375 8.06885 9.375 10.3125ZM18.75 4.0625C18.75 5.6158 17.4908 6.875 15.9375 6.875C14.3842 6.875 13.125 5.6158 13.125 4.0625C13.125 2.5092 14.3842 1.25 15.9375 1.25C17.4908 1.25 18.75 2.5092 18.75 4.0625ZM18.75 15C18.75 16.7259 17.3509 18.125 15.625 18.125C13.8991 18.125 12.5 16.7259 12.5 15C12.5 13.2741 13.8991 11.875 15.625 11.875C17.3509 11.875 18.75 13.2741 18.75 15Z" stroke="#0a6cff" stroke-width="1.5" stroke-linecap="round" stroke-linejoin="round"/>
</svg>
