<svg width="1em" height="1em" viewBox="0 0 14 4" fill="none" xmlns="http://www.w3.org/2000/svg">
  <path fill-rule="evenodd" clip-rule="evenodd"
        d="M0 2C0 1.30964 0.559644 0.75 1.25 0.75C1.94036 0.75 2.5 1.30964 2.5 2C2.5 2.69036 1.94036 3.25 1.25 3.25C0.559644 3.25 0 2.69036 0 2ZM5.75 2C5.75 1.30964 6.30964 0.75 7 0.75C7.69036 0.75 8.25 1.30964 8.25 2C8.25 2.69036 7.69036 3.25 7 3.25C6.30964 3.25 5.75 2.69036 5.75 2ZM12.75 0.75C12.0596 0.75 11.5 1.30964 11.5 2C11.5 2.69036 12.0596 3.25 12.75 3.25C13.4404 3.25 14 2.69036 14 2C14 1.30964 13.4404 0.75 12.75 0.75Z"
        fill="currentColor"></path>
</svg>
