<?xml version="1.0" encoding="UTF-8"?>
<svg width="16px" height="16px" viewBox="0 0 16 16" version="1.1" xmlns="http://www.w3.org/2000/svg" xmlns:xlink="http://www.w3.org/1999/xlink">
    <title>切片</title>
    <g id="公共" stroke="none" stroke-width="1" fill="none" fill-rule="evenodd">
        <g id="右侧悬浮按钮和展开" transform="translate(-1154.000000, -471.000000)" fill="#3D4757" fill-rule="nonzero">
            <g id="图片备份-6" transform="translate(1134.000000, 347.000000)">
                <g id="icon-and-text-copy-3复制备份-11" transform="translate(4.000000, 117.000000)">
                    <g id="00-公共/02工具栏/减小字号-16px" transform="translate(16.000000, 7.000000)">
                        <g transform="translate(2.000000, 2.000000)" id="形状结合">
                            <path d="M7.9784238,2.98356882 L7.25860182,2.2627417 L10.6527144,-1.33226763e-14 L12.7740347,2.12132034 L10.511293,5.51543289 L10.6527144,5.65685425 C11.433763,6.43790283 11.433763,7.70423279 10.6527144,8.48528137 L8.53139402,10.6066017 L6.08587662,8.16116384 L2,12.2477248 L1.21769261e-12,12.2477248 L4.93936019,7.01538198 L2.16743299,4.24264069 L4.28875334,2.12132034 C5.06980192,1.34027176 6.33613188,1.34027176 7.11718046,2.12132034 L7.9784238,2.98356882 L7.11551367,3.53373258 L6.41007368,2.82842712 C6.01954939,2.43790283 5.38638441,2.43790283 4.99586012,2.82842712 L3.58164656,4.24264069 L8.53139402,9.19238816 L9.94560759,7.77817459 C10.3361319,7.3876503 10.3361319,6.75448532 9.94560759,6.36396103 L9.22794695,5.64542471 L9.7895589,4.79401452 L11.487239,2.24873823 L10.5252965,1.28679568 L7.97971207,2.98385195 L9.59609269,4.60034257 L7.9784238,2.98356882 Z"></path>
                        </g>
                    </g>
                </g>
            </g>
        </g>
    </g>
</svg>