<?xml version="1.0" encoding="UTF-8"?>
<svg width="16px" height="16px" viewBox="0 0 32 32" version="1.1" xmlns="http://www.w3.org/2000/svg" xmlns:xlink="http://www.w3.org/1999/xlink">
    <path fill="#3d4757" d="M26 4a2 2 0 012 2v16a2 2 0 01-2 2H12v-2h14V6H6v14H4V6a2 2 0 012-2h20z"></path>
    <path fill="#3d4757" d="M4.017 17.097l1.982 1.08L6 22.192l.019.001.003 3.032 4.23-2.542 1.156-.684 1.605-.001 1.257.684-8.732 5.166a1 1 0 01-1.515-.856l-.006-9.896zM10 10h12v2H10v-2zM10 16h8v2h-8v-2z"></path>
</svg>