<svg width="1em" height="1em" viewBox="0 0 24 24" fill="none"><g clip-path="url(#clip0_13526_4358)"><path d="M14.5481 4.67493L0 20.0312H18V6.05042C18 4.24243 15.7915 3.36242 14.5481 4.67493Z" fill="#75A8FE"></path><path d="M3.45191 4.67493L18 20.0312H0V6.05042C0 4.24243 2.20848 3.36242 3.45191 4.67493Z" fill="#3B64FC"></path><path fill-rule="evenodd" clip-rule="evenodd" d="M18 20.0312H0L9 10.5312L18 20.0312Z" fill="#4F87FE"></path></g><path d="M19.0312 9.6L23.1075 6.64666C23.4794 6.37721 24 6.64291 24 7.10217V16.8978C24 17.3571 23.4794 17.6228 23.1075 17.3533L19.0312 14.4V9.6Z" fill="#4F87FE"></path><defs><clipPath id="clip0_13526_4358"><path d="M0 1.03125H18V17.9688C18 19.0733 17.1046 19.9688 16 19.9688H2C0.89543 19.9688 0 19.0733 0 17.9687V1.03125Z" fill="white"></path></clipPath></defs></svg>