 <svg
                width="24"
                height="24"
                viewBox="0 0 24 24"
                fill="none"
                xmlns="http://www.w3.org/2000/svg"
              >
                <path
                  d="M16.6132 8.11441C15.9631 5.1985 12.7028 3 9.02903 3C4.8777 3 1.5 5.78423 1.5 9.20637C1.5 11.0424 2.47447 12.6968 4.32128 14.0013C4.18203 14.4039 3.7739 16.2009 3.7739 16.2009C3.7739 16.2009 6.08328 15.3073 6.55312 15.0812L6.85088 15.1393L6.85719 15.1405C7.59866 15.2871 8.23981 15.4139 9.02903 15.4139C9.26199 15.4139 9.9571 15.2662 9.9571 15.2662M16.057 18.8775C16.781 18.8775 17.5137 18.7096 18.1715 18.5513C18.5642 18.7578 20.3981 19.5 20.3981 19.5C20.3981 19.5 20.1436 18.0057 20.0299 17.6423C21.6251 16.4299 22.5 14.9794 22.5 13.5353C22.5 10.353 19.219 8.13349 16.057 8.13354C12.6682 8.13359 9.58357 10.5779 9.58357 13.3919C9.58357 16.6547 12.8329 18.8775 16.057 18.8775Z"
                  stroke="currentColor"
                  stroke-width="1.5"
                ></path>
                <path
                  fill-rule="evenodd"
                  clip-rule="evenodd"
                  d="M6.75 7.875C7.37132 7.875 7.875 7.37132 7.875 6.75C7.875 6.12868 7.37132 5.625 6.75 5.625C6.12868 5.625 5.625 6.12868 5.625 6.75C5.625 7.37132 6.12868 7.875 6.75 7.875ZM10.875 7.875C11.4963 7.875 12 7.37132 12 6.75C12 6.12868 11.4963 5.625 10.875 5.625C10.2537 5.625 9.75 6.12868 9.75 6.75C9.75 7.37132 10.2537 7.875 10.875 7.875ZM15.375 12.375C15.375 12.9963 14.8713 13.5 14.25 13.5C13.6287 13.5 13.125 12.9963 13.125 12.375C13.125 11.7537 13.6287 11.25 14.25 11.25C14.8713 11.25 15.375 11.7537 15.375 12.375ZM17.625 13.5C18.2463 13.5 18.75 12.9963 18.75 12.375C18.75 11.7537 18.2463 11.25 17.625 11.25C17.0037 11.25 16.5 11.7537 16.5 12.375C16.5 12.9963 17.0037 13.5 17.625 13.5Z"
                  fill="currentColor"
                ></path>
                微信小程序
              </svg>