<svg width="38" height="38" viewBox="0 0 38 38" fill="none" xmlns="http://www.w3.org/2000/svg">
<path d="M0 4.75C0 2.12665 2.12665 0 4.75 0H33.25C35.8734 0 38 2.12665 38 4.75V33.25C38 35.8734 35.8734 38 33.25 38H4.75C2.12665 38 0 35.8734 0 33.25V4.75Z" fill="#F35BA8"/>
<path fill-rule="evenodd" clip-rule="evenodd" d="M12.6667 7.91699C11.7923 7.91699 11.0834 8.62587 11.0834 9.50033V23.7503C11.0834 24.6248 11.7923 25.3337 12.6667 25.3337H25.3334C26.2078 25.3337 26.9167 24.6248 26.9167 23.7503V9.50033C26.9167 8.62587 26.2078 7.91699 25.3334 7.91699H12.6667ZM21.5192 12.8509C21.983 12.3872 22.7348 12.3872 23.1986 12.8509C23.6623 13.3147 23.6623 14.0665 23.1986 14.5303L19.2832 18.4457L19.2801 18.4488C19.2159 18.513 19.1462 18.5683 19.0725 18.6147C18.8134 18.7779 18.505 18.8313 18.2136 18.7749C17.989 18.7314 17.7746 18.6227 17.6007 18.4488L17.5971 18.4452L15.3609 16.2091C14.8972 15.7453 14.8972 14.9934 15.3609 14.5297C15.8247 14.0659 16.5765 14.0659 17.0403 14.5297L18.4404 15.9298L21.5192 12.8509Z" fill="white"/>
<path d="M11.0833 20.583H9.50264C8.62819 20.583 7.91663 21.2919 7.91663 22.1663V28.4997C7.91663 29.3741 8.62551 30.083 9.49996 30.083H28.5C29.3744 30.083 30.0833 29.3741 30.0833 28.4997V22.1663C30.0833 21.2919 29.3717 20.583 28.4973 20.583H26.9166V23.7497H11.0833V20.583Z" fill="#F1BAD6"/>
</svg>
