<svg width="38" height="38" viewBox="0 0 38 38" fill="none" xmlns="http://www.w3.org/2000/svg">
<path d="M0 5.9375C0 2.65831 2.65831 0 5.9375 0H32.0625C35.3417 0 38 2.65831 38 5.9375V32.0625C38 35.3417 35.3417 38 32.0625 38H5.9375C2.65831 38 0 35.3417 0 32.0625V5.9375Z" fill="#FF7D3A"/>
<path d="M32.1 11H24.9C23.8507 11 23 11.8507 23 12.9V25.1C23 26.1493 23.8507 27 24.9 27H32.1C33.1493 27 34 26.1493 34 25.1V12.9C34 11.8507 33.1493 11 32.1 11Z" fill="#FFBB7D"/>
<path d="M28.296 22.6243C28.5626 22.619 28.8293 22.587 29.096 22.5283C29.4053 22.4483 29.6906 22.3177 29.952 22.1363C30.1813 21.9657 30.368 21.755 30.512 21.5043C30.64 21.2483 30.7066 20.9737 30.712 20.6803C30.7173 20.3017 30.6053 19.9657 30.376 19.6723C30.1466 19.411 29.8666 19.227 29.536 19.1203C29.824 18.9923 30.0666 18.803 30.264 18.5523C30.456 18.2803 30.552 17.9737 30.552 17.6323C30.5466 17.163 30.368 16.771 30.016 16.4563C29.8186 16.291 29.5946 16.1657 29.344 16.0803C29.0666 15.995 28.7866 15.9497 28.504 15.9443C28.184 15.9497 27.8693 15.987 27.56 16.0563C27.304 16.1203 27.0613 16.211 26.832 16.3283L26.84 17.5763C27.032 17.475 27.2346 17.4003 27.448 17.3523C27.672 17.299 27.8986 17.2697 28.128 17.2643C28.2506 17.2697 28.3706 17.2857 28.488 17.3123C28.5893 17.3443 28.6826 17.3897 28.768 17.4483C28.9066 17.5657 28.9786 17.7123 28.984 17.8883C28.9786 18.0857 28.912 18.2563 28.784 18.4003C28.6186 18.5603 28.424 18.6377 28.2 18.6323H27.712V19.7283H28.208C28.4426 19.7337 28.6506 19.8137 28.832 19.9683C28.9813 20.1177 29.0586 20.2963 29.064 20.5043C29.064 20.755 28.9706 20.963 28.784 21.1283C28.592 21.2617 28.3813 21.3257 28.152 21.3203C27.9493 21.3203 27.7546 21.2883 27.568 21.2243C27.3386 21.139 27.1253 21.0243 26.928 20.8803L26.408 22.0083C26.9733 22.403 27.6026 22.6083 28.296 22.6243Z" fill="#F08421"/>
<path d="M23.1 11H15.9C14.8507 11 14 11.8507 14 12.9V25.1C14 26.1493 14.8507 27 15.9 27H23.1C24.1493 27 25 26.1493 25 25.1V12.9C25 11.8507 24.1493 11 23.1 11Z" fill="#FDE0C5"/>
<path d="M21.7201 22.4643V21.2643H19.4081C19.8614 20.8483 20.2961 20.4057 20.7121 19.9363C21.0001 19.6163 21.2374 19.2617 21.4241 18.8723C21.5841 18.5363 21.6694 18.1817 21.6801 17.8083C21.6747 17.5897 21.6427 17.3737 21.5841 17.1603C21.4987 16.9043 21.3627 16.683 21.1761 16.4963C20.9787 16.3097 20.7494 16.1737 20.4881 16.0883C20.1841 15.9977 19.8747 15.9497 19.5601 15.9443C19.2401 15.955 18.9281 16.0083 18.6241 16.1043C18.2774 16.211 17.9494 16.3603 17.6401 16.5523L17.6961 17.7603C17.9094 17.6217 18.1387 17.507 18.3841 17.4163C18.6347 17.3257 18.8907 17.275 19.1521 17.2643C19.4187 17.2643 19.6614 17.339 19.8801 17.4883C20.0401 17.611 20.1254 17.7737 20.1361 17.9763C20.1254 18.2057 20.0667 18.4243 19.9601 18.6323C19.8054 18.9203 19.6214 19.187 19.4081 19.4323C19.1787 19.7043 18.9414 19.9683 18.6961 20.2243C18.3227 20.6137 17.9441 20.9923 17.5601 21.3603V22.4643H21.7201Z" fill="#F78A23"/>
<path d="M14.1 11H6.9C5.85066 11 5 11.8507 5 12.9V25.1C5 26.1493 5.85066 27 6.9 27H14.1C15.1493 27 16 26.1493 16 25.1V12.9C16 11.8507 15.1493 11 14.1 11Z" fill="white"/>
<path d="M11.744 22.4635V16.1035H10.6L9.12 17.0155V18.1115L10.256 17.6955V22.4635H11.744Z" fill="#F98F2E"/>
</svg>
