<svg width="38" height="38" viewBox="0 0 38 38" fill="none" xmlns="http://www.w3.org/2000/svg">
<path d="M0 4.75C0 2.12665 2.12665 0 4.75 0H33.25C35.8734 0 38 2.12665 38 4.75V33.25C38 35.8734 35.8734 38 33.25 38H4.75C2.12665 38 0 35.8734 0 33.25V4.75Z" fill="#E99D00"/>
<path d="M9.5 9.50033C9.5 8.62588 10.2089 7.91699 11.0833 7.91699H26.9167C27.7911 7.91699 28.5 8.62587 28.5 9.50033V28.5003C28.5 29.3748 27.7911 30.0837 26.9167 30.0837H11.0833C10.2089 30.0837 9.5 29.3748 9.5 28.5003V9.50033Z" fill="white"/>
<path d="M31.9455 14.4819C31.6364 14.1727 31.1351 14.1727 30.826 14.4819L29.6149 15.6929L31.8541 17.932L33.0651 16.721C33.3742 16.4118 33.3742 15.9106 33.0651 15.6014L31.9455 14.4819Z" fill="#FFD785"/>
<path d="M30.7345 19.0516L28.4953 16.8125L22.5254 22.7824C22.3965 22.9113 22.316 23.0807 22.2976 23.262L22.1708 24.5084C22.1201 25.0072 22.5398 25.4269 23.0385 25.3761L24.2849 25.2493C24.4662 25.2309 24.6356 25.1504 24.7645 25.0215L30.7345 19.0516Z" fill="#FFD785"/>
<rect x="12.6666" y="11.083" width="11.0833" height="2.375" rx="1.1875" fill="#E99D00"/>
<rect x="12.6666" y="15.833" width="7.91667" height="2.375" rx="1.1875" fill="#E9B142"/>
</svg>
