<svg width="38" height="38" viewBox="0 0 38 38" fill="none" xmlns="http://www.w3.org/2000/svg">
<path d="M0 4.75C0 2.12665 2.12665 0 4.75 0H33.25C35.8734 0 38 2.12665 38 4.75V33.25C38 35.8734 35.8734 38 33.25 38H4.75C2.12665 38 0 35.8734 0 33.25V4.75Z" fill="#34B6E5"/>
<path fill-rule="evenodd" clip-rule="evenodd" d="M11.0834 9.50033C11.0834 8.62587 11.7923 7.91699 12.6667 7.91699H25.3334C26.2078 7.91699 26.9167 8.62587 26.9167 9.50033V23.7503C26.9167 24.6248 26.2078 25.3337 25.3334 25.3337H12.6667C11.7923 25.3337 11.0834 24.6248 11.0834 23.7503V9.50033ZM15.8334 12.2712C15.8334 11.6153 16.365 11.0837 17.0209 11.0837H20.9792C21.635 11.0837 22.1667 11.6153 22.1667 12.2712C22.1667 12.927 21.635 13.4587 20.9792 13.4587H17.0209C16.365 13.4587 15.8334 12.927 15.8334 12.2712ZM17.0209 15.8337C16.365 15.8337 15.8334 16.3653 15.8334 17.0212C15.8334 17.677 16.365 18.2087 17.0209 18.2087H19.3959C20.0517 18.2087 20.5834 17.677 20.5834 17.0212C20.5834 16.3653 20.0517 15.8337 19.3959 15.8337H17.0209Z" fill="white"/>
<path d="M19 23.7497C20.7489 23.7497 22.1666 22.3319 22.1666 20.583H28.5C29.3744 20.583 30.0833 21.2919 30.0833 22.1663V28.4997C30.0833 29.3741 29.3744 30.083 28.5 30.083H9.49996C8.62551 30.083 7.91663 29.3741 7.91663 28.4997V22.1663C7.91663 21.2919 8.62551 20.583 9.49996 20.583H15.8333C15.8333 22.3319 17.2511 23.7497 19 23.7497Z" fill="#8DDCF9"/>
</svg>
