<svg width="38" height="38" viewBox="0 0 38 38" fill="none" xmlns="http://www.w3.org/2000/svg">
<path d="M0 4.75C0 2.12665 2.12665 0 4.75 0H33.25C35.8734 0 38 2.12665 38 4.75V33.25C38 35.8734 35.8734 38 33.25 38H4.75C2.12665 38 0 35.8734 0 33.25V4.75Z" fill="#EF5959"/>
<path d="M11.0837 9.50033C11.0837 8.62587 10.3748 7.91699 9.50033 7.91699C8.62587 7.91699 7.91699 8.62587 7.91699 9.50033V20.5837C7.91699 21.4581 8.62587 22.167 9.50033 22.167C10.3748 22.167 11.0837 21.4581 11.0837 20.5837V9.50033Z" fill="white"/>
<path opacity="0.9" fill-rule="evenodd" clip-rule="evenodd" d="M16.6253 8.70801C14.4392 8.70801 12.667 10.4802 12.667 12.6663V17.4163C12.667 19.6025 14.4392 21.3747 16.6253 21.3747C18.8115 21.3747 20.5837 19.6025 20.5837 17.4163V12.6663C20.5837 10.4802 18.8115 8.70801 16.6253 8.70801ZM15.8337 12.6663C15.8337 12.2291 16.1881 11.8747 16.6253 11.8747C17.0626 11.8747 17.417 12.2291 17.417 12.6663V17.4163C17.417 17.8536 17.0626 18.208 16.6253 18.208C16.1881 18.208 15.8337 17.8536 15.8337 17.4163V12.6663Z" fill="white"/>
<path opacity="0.8" fill-rule="evenodd" clip-rule="evenodd" d="M22.167 12.6663C22.167 10.4802 23.9392 8.70801 26.1253 8.70801C28.3115 8.70801 30.0837 10.4802 30.0837 12.6663V17.4163C30.0837 19.6025 28.3115 21.3747 26.1253 21.3747C23.9392 21.3747 22.167 19.6025 22.167 17.4163V12.6663ZM26.1253 11.8747C25.6881 11.8747 25.3337 12.2291 25.3337 12.6663V17.4163C25.3337 17.8536 25.6881 18.208 26.1253 18.208C26.5626 18.208 26.917 17.8536 26.917 17.4163V12.6663C26.917 12.2291 26.5626 11.8747 26.1253 11.8747Z" fill="white"/>
<path opacity="0.5" d="M29.6024 26.0942C30.4599 25.9227 31.016 25.0886 30.8445 24.2311C30.673 23.3737 29.8389 22.8176 28.9814 22.9891L9.18975 26.9474C8.33228 27.1189 7.77618 27.953 7.94768 28.8105C8.11917 29.668 8.95331 30.2241 9.81078 30.0526L29.6024 26.0942Z" fill="white"/>
</svg>
