<svg width="38" height="38" viewBox="0 0 38 38" fill="none" xmlns="http://www.w3.org/2000/svg">
<path d="M0 4.75C0 2.12665 2.12665 0 4.75 0H33.25C35.8734 0 38 2.12665 38 4.75V33.25C38 35.8734 35.8734 38 33.25 38H4.75C2.12665 38 0 35.8734 0 33.25V4.75Z" fill="#9E74F0"/>
<path fill-rule="evenodd" clip-rule="evenodd" d="M29 14H9V26.1C9 27.1493 9.85066 28 10.9 28H27.1C28.1493 28 29 27.1493 29 26.1V14ZM21.8284 17.3217L17.9212 21.2289L16.1444 19.4521C15.6938 19.0014 14.9632 19.0014 14.5126 19.4521C14.062 19.9027 14.062 20.6332 14.5126 21.0838L17.1123 23.6836L17.1144 23.6856L17.1164 23.6877L17.1234 23.6947C17.574 24.1453 18.3046 24.1453 18.7552 23.6947L18.7596 23.6903L18.7643 23.6856L23.4783 18.9716C23.9339 18.516 23.9339 17.7773 23.4783 17.3217C23.0227 16.8661 22.284 16.8661 21.8284 17.3217Z" fill="white"/>
<path fill-rule="evenodd" clip-rule="evenodd" d="M10.9 10H27.1C28.1493 10 29 10.8507 29 11.9V14H9V11.9C9 10.8507 9.85066 10 10.9 10Z" fill="white" fill-opacity="0.6"/>
<path fill-rule="evenodd" clip-rule="evenodd" d="M14.5 8C15.3284 8 16 8.67157 16 9.5V10H13V9.5C13 8.67157 13.6716 8 14.5 8Z" fill="white" fill-opacity="0.6"/>
<path fill-rule="evenodd" clip-rule="evenodd" d="M23.5 8C24.3284 8 25 8.67157 25 9.5V10H22V9.5C22 8.67157 22.6716 8 23.5 8Z" fill="white" fill-opacity="0.6"/>
</svg>
