<svg width="38" height="38" viewBox="0 0 38 38" fill="none" xmlns="http://www.w3.org/2000/svg">
<path d="M0 5.9375C0 2.65831 2.65831 0 5.9375 0H32.0625C35.3417 0 38 2.65831 38 5.9375V32.0625C38 35.3417 35.3417 38 32.0625 38H5.9375C2.65831 38 0 35.3417 0 32.0625V5.9375Z" fill="#44BAB2"/>
<path opacity="0.496911" d="M12.5 27H11.5C10.6716 27 10 27.6716 10 28.5C10 29.3284 10.6716 30 11.5 30H12.5C13.3284 30 14 29.3284 14 28.5C14 27.6716 13.3284 27 12.5 27Z" fill="white"/>
<path opacity="0.496911" d="M26.5 27H17.5C16.6716 27 16 27.6716 16 28.5C16 29.3284 16.6716 30 17.5 30H26.5C27.3284 30 28 29.3284 28 28.5C28 27.6716 27.3284 27 26.5 27Z" fill="white"/>
<path fill-rule="evenodd" clip-rule="evenodd" d="M18.5 8C22.6421 8 26 11.3579 26 15.5C26 17.1049 25.4959 18.5921 24.6373 19.8119L27.8536 23.1045C27.964 23.2176 27.964 23.3981 27.8536 23.5112L26.5164 24.8799C26.404 24.9949 26.2198 24.997 26.1048 24.8847L26.1001 24.8799L22.8823 21.5872C21.6496 22.4762 20.136 23 18.5 23C14.3579 23 11 19.6421 11 15.5C11 11.3579 14.3579 8 18.5 8ZM18.5 10.8125C15.9112 10.8125 13.8125 12.9112 13.8125 15.5C13.8125 18.0888 15.9112 20.1875 18.5 20.1875C21.0888 20.1875 23.1875 18.0888 23.1875 15.5C23.1875 12.9112 21.0888 10.8125 18.5 10.8125Z" fill="white"/>
</svg>
