<svg width="38" height="38" viewBox="0 0 38 38" fill="none" xmlns="http://www.w3.org/2000/svg">
<path d="M0 5.9375C0 2.65831 2.65831 0 5.9375 0H32.0625C35.3417 0 38 2.65831 38 5.9375V32.0633C38 35.3425 35.3417 38.0008 32.0625 38.0008H5.9375C2.65831 38.0008 0 35.3425 0 32.0633V5.9375Z" fill="url(#paint0_linear_3328_122313)"/>
<path fill-rule="evenodd" clip-rule="evenodd" d="M29.2086 12.2039C28.1622 8.74431 24.9744 5.9502 19.026 5.9502C13.0791 5.9502 9.89142 8.74288 8.84422 12.2013C7.44799 12.2573 6.33325 13.4069 6.33325 14.8169C6.33325 16.2023 7.40953 17.3364 8.7716 17.4286C9.05449 18.5121 9.48885 19.4697 9.9283 20.434L10.0197 20.6347C10.7115 22.1552 11.3907 23.7153 11.4862 25.8325C12.9026 26.519 16.7723 27.27 18.9993 27.27C21.3236 27.27 24.1665 26.6227 26.5635 25.7492C26.6823 23.6756 27.3511 22.1367 28.0311 20.6399L28.214 20.2377C28.6228 19.3368 29.0181 18.4351 29.2815 17.4244C30.6183 17.3067 31.6666 16.1842 31.6666 14.8169C31.6666 13.4248 30.5799 12.2865 29.2086 12.2039ZM26.8235 28.0261C23.606 31.3117 19.9678 33.3471 18.9993 33.3471C18.0338 33.3471 14.3077 31.3239 11.1593 28.0555L8.20932 32.2211C7.39118 33.2903 8.15358 34.8337 9.49992 34.8337H28.4999C29.8462 34.8337 30.6086 33.2904 29.7905 32.2211L26.8235 28.0261ZM14.9972 14.0295C15.5289 14.0295 15.9599 13.5985 15.9599 13.0668C15.9599 12.5352 15.5289 12.1042 14.9972 12.1042C14.4656 12.1042 14.0346 12.5352 14.0346 13.0668C14.0346 13.5985 14.4656 14.0295 14.9972 14.0295ZM23.0023 14.0295C23.534 14.0295 23.965 13.5985 23.965 13.0668C23.965 12.5352 23.534 12.1042 23.0023 12.1042C22.4707 12.1042 22.0397 12.5352 22.0397 13.0668C22.0397 13.5985 22.4707 14.0295 23.0023 14.0295ZM20.5197 14.3843C20.5197 14.86 19.8391 15.2456 18.9997 15.2456C18.1602 15.2456 17.4797 14.86 17.4797 14.3843C17.4797 13.9086 18.1602 13.523 18.9997 13.523C19.8391 13.523 20.5197 13.9086 20.5197 14.3843ZM13.8846 16.0743C14.0307 15.9916 14.2162 16.043 14.299 16.1891C14.5685 16.665 15.0231 16.9205 15.7406 16.9205C16.2572 16.9205 16.6396 16.8221 17.0905 16.706L17.1985 16.6782C17.7018 16.5496 18.2758 16.417 19.1294 16.417C19.9857 16.417 20.4873 16.5505 20.9216 16.6818L21.0153 16.7103C21.3916 16.825 21.7049 16.9205 22.2127 16.9205C22.9378 16.9205 23.4152 16.6804 23.7135 16.241C23.8078 16.1021 23.9968 16.0659 24.1357 16.1602C24.2747 16.2545 24.3108 16.4436 24.2165 16.5825C23.7792 17.2267 23.0884 17.5285 22.2127 17.5285C21.6122 17.5285 21.2229 17.4095 20.8421 17.2931L20.7457 17.2638C20.3471 17.1433 19.9073 17.025 19.1294 17.025C18.3487 17.025 17.8305 17.1442 17.3491 17.2673L17.2349 17.2967C16.7881 17.412 16.3369 17.5285 15.7406 17.5285C14.8519 17.5285 14.1691 17.1935 13.7699 16.4887C13.6872 16.3426 13.7385 16.1571 13.8846 16.0743Z" fill="white"/>
<defs>
<linearGradient id="paint0_linear_3328_122313" x1="0" y1="0" x2="38" y2="38" gradientUnits="userSpaceOnUse">
<stop stop-color="#00D1FF"/>
<stop offset="1" stop-color="#F24CB2"/>
</linearGradient>
</defs>
</svg>
