<svg width="38" height="38" viewBox="0 0 38 38" fill="none" xmlns="http://www.w3.org/2000/svg">
<path d="M0 4.75C0 2.12665 2.12665 0 4.75 0H33.25C35.8734 0 38 2.12665 38 4.75V33.25C38 35.8734 35.8734 38 33.25 38H4.75C2.12665 38 0 35.8734 0 33.25V4.75Z" fill="#EF5959"/>
<path d="M28 22.2274V9.65873C28 8.74264 27.2837 8 26.4 8H11.6C10.7163 8 10 8.74264 10 9.65873V28.3413C10 29.2574 10.7163 30 11.6 30H19.9527C20.5787 30 21.1809 29.7594 21.6346 29.3279L27.2413 23.996C27.7257 23.5353 28 22.896 28 22.2274Z" fill="white"/>
<path opacity="0.3" fill-rule="evenodd" clip-rule="evenodd" d="M20.722 30L28 23.5877L28 23H21.8214C20.8155 23 20 23.8155 20 24.8214V29.9995L20.722 30Z" fill="#D6292E"/>
<path d="M14.5088 20.5283L15.3086 18.4775H19.0479L19.7383 20.5283H21.6387L18.4941 10.8691H16.0195L12.6904 20.5283H14.5088ZM15.7939 16.7754L17.2568 12.7695L18.6035 16.7686L15.7939 16.7754Z" fill="#FC6A6E"/>
</svg>
