<svg width="38" height="38" viewBox="0 0 38 38" fill="none" xmlns="http://www.w3.org/2000/svg">
<path d="M0 4.75C0 2.12665 2.12665 0 4.75 0H33.25C35.8734 0 38 2.12665 38 4.75V33.25C38 35.8734 35.8734 38 33.25 38H4.75C2.12665 38 0 35.8734 0 33.25V4.75Z" fill="#3B89FF"/>
<path opacity="0.7" fill-rule="evenodd" clip-rule="evenodd" d="M9.5 9.5H12.5875C13.2433 9.5 13.775 8.96834 13.775 8.3125C13.775 7.65666 13.2433 7.125 12.5875 7.125H9.10417C8.0111 7.125 7.125 8.01111 7.125 9.10417V12.5875C7.125 13.2433 7.65666 13.775 8.3125 13.775C8.96834 13.775 9.5 13.2433 9.5 12.5875V9.5ZM24.225 8.3125C24.225 7.65666 24.7567 7.125 25.4125 7.125H28.8958C29.9889 7.125 30.875 8.0111 30.875 9.10417V12.5875C30.875 13.2433 30.3433 13.775 29.6875 13.775C29.0317 13.775 28.5 13.2433 28.5 12.5875V9.5H25.4125C24.7567 9.5 24.225 8.96834 24.225 8.3125ZM8.3125 24.225C8.96834 24.225 9.5 24.7567 9.5 25.4125V28.5H12.5875C13.2433 28.5 13.775 29.0317 13.775 29.6875C13.775 30.3433 13.2433 30.875 12.5875 30.875H9.10417C8.01111 30.875 7.125 29.9889 7.125 28.8958V25.4125C7.125 24.7567 7.65666 24.225 8.3125 24.225ZM29.6875 24.225C30.3433 24.225 30.875 24.7567 30.875 25.4125V28.8958C30.875 29.9889 29.9889 30.875 28.8958 30.875H25.4125C24.7567 30.875 24.225 30.3433 24.225 29.6875C24.225 29.0317 24.7567 28.5 25.4125 28.5H28.5V25.4125C28.5 24.7567 29.0317 24.225 29.6875 24.225Z" fill="white"/>
<path fill-rule="evenodd" clip-rule="evenodd" d="M11.4792 14.2503C11.4792 13.3759 12.1881 12.667 13.0626 12.667H24.9376C25.812 12.667 26.5209 13.3759 26.5209 14.2503C26.5209 15.1248 25.812 15.8337 24.9376 15.8337H20.5834V25.3337C20.5834 26.2081 19.8745 26.917 19.0001 26.917C18.1256 26.917 17.4167 26.2081 17.4167 25.3337V15.8337H13.0626C12.1881 15.8337 11.4792 15.1248 11.4792 14.2503Z" fill="white"/>
</svg>
