<svg width="38" height="38" viewBox="0 0 38 38" fill="none" xmlns="http://www.w3.org/2000/svg">
<path d="M0 5.9375C0 2.65831 2.65831 0 5.9375 0H32.0625C35.3417 0 38 2.65831 38 5.9375V32.0625C38 35.3417 35.3417 38 32.0625 38H5.9375C2.65831 38 0 35.3417 0 32.0625V5.9375Z" fill="#3B89FF"/>
<path fill-rule="evenodd" clip-rule="evenodd" d="M10 13C9.44772 13 9 13.4477 9 14C9 14.5523 9.44772 15 10 15C10.5523 15 11 14.5523 11 14C11 13.4477 10.5523 13 10 13ZM7 14C7 12.3431 8.34315 11 10 11C11.6569 11 13 12.3431 13 14C13 15.6569 11.6569 17 10 17C8.34314 17 7 15.6569 7 14Z" fill="white"/>
<path d="M29 12H18C16.8954 12 16 12.8954 16 14C16 15.1046 16.8954 16 18 16H29C30.1046 16 31 15.1046 31 14C31 12.8954 30.1046 12 29 12Z" fill="white"/>
<path opacity="0.7" fill-rule="evenodd" clip-rule="evenodd" d="M10 22C9.44772 22 9 22.4477 9 23C9 23.5523 9.44772 24 10 24C10.5523 24 11 23.5523 11 23C11 22.4477 10.5523 22 10 22ZM7 23C7 21.3431 8.34315 20 10 20C11.6569 20 13 21.3431 13 23C13 24.6569 11.6569 26 10 26C8.34315 26 7 24.6569 7 23Z" fill="white"/>
<path opacity="0.7" d="M29 21H18C16.8954 21 16 21.8954 16 23C16 24.1046 16.8954 25 18 25H29C30.1046 25 31 24.1046 31 23C31 21.8954 30.1046 21 29 21Z" fill="white"/>
</svg>
