<?xml version="1.0" encoding="UTF-8"?>
<svg width="1em" height="1em" viewBox="0 0 24 24" fill="none"><rect x="21.9375" y="21" width="19.875" height="18" rx="2.0625" transform="rotate(180 21.9375 21)" fill="#4F87FE"></rect>
<path d="M21.9375 7.03125H2.0625V5.0625C2.0625 3.92341 2.98591 3 4.125 3H19.875C21.0141 3 21.9375 3.92341 21.9375 5.0625V7.03125Z" fill="#75A8FE">
</path>
<path d="M4.125 21C2.98591 21 2.0625 20.0766 2.0625 18.9375L2.0625 5.64236C2.0625 4.90066 2.84161 4.41707 3.50628 4.74623L6.09375 6.02757L6.09375 21L4.125 21Z" fill="#3B64FC">
</path><path fill-rule="evenodd" clip-rule="evenodd" d="M9.9375 12H13.626L10.7331 17.0625H13.6512L17.2164 10.7775C17.4291 10.4026 17.1583 9.9375 16.7272 9.9375H9.9375V12Z" fill="white">
</path><path d="M2.0625 5.0625C2.0625 3.92341 2.98591 3 4.125 3H6.09375V7.03125H2.0625V5.0625Z" fill="#4F87FE"></path></svg>