<svg width="1em" height="1em" viewBox="0 0 24 24" fill="none"><path d="M7.24473 14.7168L11.907 17.4404V23.8031L2.12758 18.0192C2.05959 17.9788 2.01822 17.9053 2.01893 17.8263C2.01966 17.7472 2.06237 17.6745 2.13108 17.6354L7.24473 14.7168Z" fill="#0062FF"></path><path opacity="0.6" d="M11.9095 23.7986V17.4359L7.53407 14.5322L1.83435 17.8364L11.9095 23.7986Z" fill="url(#paint0_linear_13998_3989)"></path><path d="M11.9126 23.8034L11.8357 17.5081L12.238 17.46L11.9126 23.8034Z" fill="#144DD4"></path><path d="M22.0601 11.9717L22.2106 18.232L11.9106 23.8121V17.4967L22.0601 11.9717Z" fill="url(#paint1_linear_13998_3989)"></path><path d="M22.2146 18.226V5.88281L17.4823 8.41144V14.4305L22.2146 18.226Z" fill="url(#paint2_linear_13998_3989)"></path><path d="M6.93671 8.8125L11.9139 11.3263V17.5394L1.88341 11.9173C1.81325 11.8775 1.7702 11.8028 1.77091 11.7222C1.77165 11.6416 1.81604 11.5676 1.88691 11.5291L6.93671 8.8125Z" fill="#0082FF"></path><path opacity="0.601" d="M11.9096 17.8227L11.9052 11.6454L6.7513 8.8125L2.03389 11.4504C1.92963 11.5085 1.86449 11.6179 1.86321 11.7372C1.86196 11.8565 1.92476 11.9673 2.02777 12.0275L11.9096 17.8227Z" fill="url(#paint3_linear_13998_3989)"></path><path d="M11.6742 0.244464L1.7163 5.84818C1.64667 5.88761 1.60364 5.96142 1.60364 6.04142C1.60364 6.12141 1.64667 6.19522 1.7163 6.23465L11.9112 11.9949L22.212 5.87879L12.1089 0.24359C11.974 0.168493 11.8097 0.168824 11.6751 0.244464H11.6742Z" fill="url(#paint4_linear_13998_3989)"></path><defs><linearGradient id="paint0_linear_13998_3989" x1="11.8953" y1="17.867" x2="9.33264" y2="21.7692" gradientUnits="userSpaceOnUse"><stop stop-color="#0044B1"></stop><stop offset="1" stop-color="#0062FF" stop-opacity="0"></stop></linearGradient><linearGradient id="paint1_linear_13998_3989" x1="13.1665" y1="20.7475" x2="18.8002" y2="17.2064" gradientUnits="userSpaceOnUse"><stop stop-color="#1A4ACC"></stop><stop offset="1" stop-color="#0854E4"></stop></linearGradient><linearGradient id="paint2_linear_13998_3989" x1="19.8484" y1="16.5185" x2="19.8484" y2="7.41843" gradientUnits="userSpaceOnUse"><stop stop-color="#0A5DF6"></stop><stop offset="1" stop-color="#124CDC"></stop></linearGradient><linearGradient id="paint3_linear_13998_3989" x1="11.9096" y1="12.1776" x2="9.40284" y2="15.6629" gradientUnits="userSpaceOnUse"><stop stop-color="#0044B1"></stop><stop offset="1" stop-color="#0062FF" stop-opacity="0"></stop></linearGradient><linearGradient id="paint4_linear_13998_3989" x1="11.9078" y1="0.1875" x2="11.9078" y2="11.9949" gradientUnits="userSpaceOnUse"><stop stop-color="#4AC3FF"></stop><stop offset="1" stop-color="#0E93F8"></stop></linearGradient></defs></svg>