<svg width="32" height="32" viewBox="0 0 32 32" fill="none" xmlns="http://www.w3.org/2000/svg">
<g clip-path="url(#clip0_6737_421745)">
<rect width="32" height="32" rx="16" fill="#BFC4CC"/>
<path d="M24.5008 29.5573C22.0379 31.1049 19.1234 32 15.9998 32C13.0225 32 10.2351 31.1868 7.84765 29.7703C8.29854 27.6966 8.68902 25.7877 8.88401 24.1127C12.071 27.2064 15.3209 30.0142 16.2032 30.0142C16.9953 30.0142 21.9184 25.7111 23.5089 24.1352C23.6948 25.7516 24.0657 27.5778 24.5008 29.5573Z" fill="white"/>
<path fill-rule="evenodd" clip-rule="evenodd" d="M9.0072 21.6091C8.92698 19.6292 8.33337 18.486 7.73977 17.3428C7.2064 16.3155 6.67304 15.2883 6.51209 13.6542C6.49584 13.6546 6.47954 13.6548 6.46319 13.6548C5.47091 13.6548 4.6665 12.8504 4.6665 11.8582C4.6665 10.8659 5.47091 10.0615 6.46319 10.0615C6.62111 10.0615 6.77427 10.0818 6.92018 10.1201C8.11958 7.0906 11.5862 5.33331 16.2031 5.33331C20.8173 5.33331 24.2825 7.09859 25.4839 10.1207C25.6305 10.082 25.7844 10.0615 25.9431 10.0615C26.9354 10.0615 27.7398 10.8659 27.7398 11.8582C27.7398 12.8504 26.9354 13.6548 25.9431 13.6548C25.9266 13.6548 25.9102 13.6546 25.8938 13.6542C25.7329 15.2781 25.2019 16.3045 24.6693 17.334C24.0436 18.5435 23.4156 19.7574 23.3827 21.9493C20.0642 23.4803 17.671 24.2458 16.2032 24.2458C14.119 24.2458 10.4039 22.6139 9.0072 21.6091ZM13.3663 11.8109C13.3663 12.307 12.9641 12.7092 12.4679 12.7092C11.9718 12.7092 11.5696 12.307 11.5696 11.8109C11.5696 11.3147 11.9718 10.9125 12.4679 10.9125C12.9641 10.9125 13.3663 11.3147 13.3663 11.8109ZM19.9384 12.7092C20.4345 12.7092 20.8367 12.307 20.8367 11.8109C20.8367 11.3147 20.4345 10.9125 19.9384 10.9125C19.4422 10.9125 19.04 11.3147 19.04 11.8109C19.04 12.307 19.4422 12.7092 19.9384 12.7092ZM17.6215 13.0402C17.6215 13.4841 16.9865 13.844 16.2031 13.844C15.4197 13.844 14.7847 13.4841 14.7847 13.0402C14.7847 12.5963 15.4197 12.2364 16.2031 12.2364C16.9865 12.2364 17.6215 12.5963 17.6215 13.0402ZM11.4754 14.2692C11.6299 14.2433 11.7762 14.3476 11.802 14.5021C11.8701 14.9086 11.9876 15.1754 12.1286 15.3368C12.2602 15.4873 12.4278 15.5646 12.6578 15.5646C13.0772 15.5646 13.7369 15.418 14.4435 15.2579L14.496 15.246C15.1571 15.0962 15.8583 14.9372 16.3253 14.9372C16.7992 14.9372 17.447 15.1 18.0463 15.2507L18.0811 15.2594C18.72 15.42 19.3047 15.5646 19.7048 15.5646C19.9268 15.5646 20.0978 15.4911 20.2384 15.3443C20.387 15.1891 20.517 14.935 20.6079 14.5516C20.6441 14.3991 20.7969 14.3049 20.9494 14.341C21.1018 14.3771 21.1961 14.53 21.16 14.6824C21.0563 15.1199 20.8926 15.4815 20.6482 15.7367C20.3957 16.0003 20.0744 16.132 19.7048 16.132C19.2248 16.132 18.5716 15.9678 17.9697 15.8165L17.9428 15.8097C17.3035 15.649 16.7212 15.5046 16.3253 15.5046C15.9258 15.5046 15.2772 15.6508 14.5689 15.8113L14.5569 15.814C13.8824 15.9668 13.1534 16.132 12.6578 16.132C12.2759 16.132 11.9483 15.9927 11.7014 15.7102C11.4639 15.4384 11.3195 15.0556 11.2425 14.5959C11.2166 14.4414 11.3209 14.2951 11.4754 14.2692Z" fill="white"/>
</g>
<defs>
<clipPath id="clip0_6737_421745">
<rect width="32" height="32" rx="16" fill="white"/>
</clipPath>
</defs>
</svg>
