<?xml version="1.0" encoding="UTF-8"?>
<svg width="16px" height="16px" viewBox="0 0 16 16" version="1.1" xmlns="http://www.w3.org/2000/svg" xmlns:xlink="http://www.w3.org/1999/xlink">
    <title>切片</title>
    <g id="公共" stroke="none" stroke-width="1" fill="none" fill-rule="evenodd">
        <g id="右侧悬浮按钮和展开" transform="translate(-1154.000000, -411.000000)" fill="#3D4757">
            <g id="图片备份-6" transform="translate(1134.000000, 347.000000)">
                <g id="icon-and-text-copy-3复制" transform="translate(4.000000, 57.000000)">
                    <g id="00-公共/02工具栏/减小字号-16px" transform="translate(16.000000, 7.000000)">
                        <g transform="translate(1.000000, 0.000000)" id="编组">
                            <g transform="translate(0.000000, 1.000000)">
                                <path d="M7,0 C10.8659932,0 14,3.13400675 14,7 C14,10.8659932 10.8659932,14 7,14 C3.13400675,14 0,10.8659932 0,7 C0,3.13400675 3.13400675,0 7,0 Z M7,1.07692308 C3.72877494,1.07692308 1.07692308,3.72877494 1.07692308,7 C1.07692308,10.2712251 3.72877494,12.9230769 7,12.9230769 C10.2712251,12.9230769 12.9230769,10.2712251 12.9230769,7 C12.9230769,3.72877494 10.2712251,1.07692308 7,1.07692308 Z M7,9 C7.55228557,9 8,9.44771442 8,10 C8,10.5522856 7.55228557,11 7,11 C6.44771443,11 6,10.5522856 6,10 C6,9.44771442 6.44771443,9 7,9 Z M6.13684075,3.12287094 C7.00366136,2.79468605 8.18038142,3.13732576 8.74993616,3.99061888 C9.29099764,4.95932058 8.93456691,5.92326285 7.86919006,6.7222905 C7.68607336,6.89182554 7.58869017,7.01752991 7.56469912,7.06085925 L7.56469912,7.06085925 L7.5649633,7.2684894 C7.56509995,7.32662155 7.5652824,7.37977213 7.56549835,7.4019885 C7.56867645,7.72894822 7.31567635,7.99667334 7.00040682,8 C6.68513729,8.00326523 6.42698448,7.74088389 6.42380638,7.41392416 L6.42380638,7.41392416 L6.42309292,7.26408425 C6.42296609,7.20463116 6.42295421,7.14063409 6.42306916,7.08698042 L6.42380638,6.97193697 L6.43025191,6.89521533 C6.48474291,6.52627932 6.72664072,6.18730386 7.13550949,5.81446411 L7.13550949,5.81446411 L7.18092956,5.77711071 C7.83647584,5.29210386 7.96581707,4.94909165 7.78719505,4.62528384 C7.56076568,4.2874521 7.00852514,4.15216103 6.64662603,4.28667332 C6.50117964,4.35754434 6.24638454,4.56446343 6.22723843,4.63097473 C6.20809233,4.69748603 6.18518123,4.75198248 6.16078293,4.84268888 C6.1510809,4.87875844 6.14252383,4.91283854 6.13684075,4.9375228 C6.09938662,5.22690059 5.86035663,5.45005445 5.57106979,5.45005445 C5.22273003,5.37924942 5.16431492,5.31972923 5.05102655,5.10258922 C5.00769995,4.97239463 5.00769995,4.97239463 5.00225169,4.91192402 C5.00150738,4.89235534 5.00094915,4.87767884 5.0005747,4.86617943 L5.00051482,4.82158766 L5.00051482,4.82158766 L5.00210429,4.80215966 C5.00686666,4.75948599 5.00686666,4.75948599 5.01056578,4.73833372 C5.0172489,4.70302901 5.0172489,4.70302901 5.02417779,4.67186325 C5.03365877,4.62995011 5.0466258,4.57804634 5.06102087,4.52452932 C5.09841851,4.38549486 5.13878498,4.25758647 5.18015032,4.15890451 C5.31773744,3.83067404 5.71322145,3.32668565 6.13684075,3.12287094 Z" id="形状结合"></path>
                            </g>
                        </g>
                    </g>
                </g>
            </g>
        </g>
    </g>
</svg>