<svg width="20" height="20" viewBox="0 0 20 20" fill="none" xmlns="http://www.w3.org/2000/svg">
<path d="M7.1875 5.9375H12.8125M10.1831 14.1919L15.3598 9.01516C15.5063 8.86872 15.7437 8.86872 15.8902 9.01516L18.4848 11.6098C18.6313 11.7563 18.6313 11.9937 18.4848 12.1402L13.3081 17.3169C13.1908 17.4342 13.0319 17.5 12.8661 17.5H10.375C10.1679 17.5 10 17.3321 10 17.125V14.6339C10 14.4681 10.0658 14.3092 10.1831 14.1919Z" stroke="#0a6cff" stroke-width="1.5" stroke-linecap="round" stroke-linejoin="round"/>
<path d="M7.5 17.8125H5.3125C4.27697 17.8125 3.4375 16.973 3.4375 15.9375V4.0625C3.4375 3.02697 4.27697 2.1875 5.3125 2.1875H14.6875C15.723 2.1875 16.5625 3.02697 16.5625 4.0625V6.875" stroke="#0a6cff" stroke-width="1.5" stroke-linejoin="round"/>
</svg>
