<svg width="16" height="16" viewBox="0 0 16 16" fill="none" xmlns="http://www.w3.org/2000/svg">
    <g clip-path="url(#clip0_9535_12919)">
    <circle cx="8" cy="12" r="1" fill="#6D7582"/>
    <path d="M8.01246 9.36654V9.05239V9.05239C8.01246 8.81231 8.25229 8.58057 8.41783 8.40667C8.57031 8.24651 8.81171 7.99905 9.1939 7.61686C10.2435 6.56729 10.076 5.2933 9.1939 4.48117C8.62463 3.95703 7.66383 3.82906 7.00369 4.2328C6.22314 4.71019 5.97265 5.30499 5.97265 6.06764M15 8C15 11.866 11.866 15 8 15C4.13401 15 1 11.866 1 8C1 4.13401 4.13401 1 8 1C11.866 1 15 4.13401 15 8Z" stroke="#6D7582" stroke-width="1.5" stroke-linecap="round" stroke-linejoin="round"/>
    </g>
    <defs>
    <clipPath id="clip0_9535_12919">
    <rect width="16" height="16" fill="white"/>
    </clipPath>
    </defs>
    </svg>
    