<svg width="16" height="16" viewBox="0 0 16 16" fill="none" xmlns="http://www.w3.org/2000/svg">
<path fill-rule="evenodd" clip-rule="evenodd" d="M7.04894 1.06284C7.42639 0.256196 8.57356 0.25619 8.95101 1.06284L10.7271 4.85846L14.9335 5.35009C15.8277 5.45461 16.1843 6.56241 15.519 7.16896L12.4191 9.99475L13.2425 14.0795C13.4192 14.9562 12.489 15.6384 11.7059 15.2063L7.99998 13.1615L4.29403 15.2063C3.51098 15.6384 2.58074 14.9562 2.75747 14.0795L3.58084 9.99475L0.481 7.16896C-0.184377 6.56241 0.172208 5.45461 1.06648 5.35009L5.27288 4.85846L7.04894 1.06284ZM7.99998 2.56962L6.27723 6.25129L2.22095 6.72537L5.21911 9.45846L4.41983 13.4237L7.99998 11.4483L11.5801 13.4237L10.7808 9.45846L13.779 6.72537L9.72272 6.25129L7.99998 2.56962Z" fill="#2D343D"/>
</svg>
