<svg width="20" height="20" viewBox="0 0 20 20" fill="none" xmlns="http://www.w3.org/2000/svg">
<path d="M13.25 17.1875H17.25C18.0784 17.1875 18.75 16.5159 18.75 15.6875V14.6875C18.75 12.2023 16.7352 10.1877 14.25 10.1875C13.5 10.1874 12.6656 10.4384 12 10.6875M9.00003 4.25C9.00003 5.90685 7.65688 7.25 6.00003 7.25C4.34318 7.25 3.00003 5.90685 3.00003 4.25C3.00003 2.59315 4.34318 1.25 6.00003 1.25C7.65688 1.25 9.00003 2.59315 9.00003 4.25ZM16.5 4.75C16.5 5.99264 15.4926 7 14.25 7C13.0073 7 12 5.99264 12 4.75C12 3.50736 13.0073 2.5 14.25 2.5C15.4926 2.5 16.5 3.50736 16.5 4.75ZM2.75 18.4375H9.25C10.0784 18.4375 10.75 17.7659 10.75 16.9375V14.6875C10.75 12.0641 8.62335 9.99997 6 9.99997C3.37665 9.99997 1.25 12.0641 1.25 14.6875V16.9375C1.25 17.7659 1.92157 18.4375 2.75 18.4375Z" stroke="#ffffff" stroke-width="1.5" stroke-linejoin="round"/>
</svg>
