<?xml version="1.0" encoding="UTF-8"?>
<svg width="16px" height="16px" viewBox="0 0 16 16" version="1.1" xmlns="http://www.w3.org/2000/svg" xmlns:xlink="http://www.w3.org/1999/xlink">
    <title>切片</title>
    <g id="wps-pc-题型" stroke="none" stroke-width="1" fill="none" fill-rule="evenodd">
        <g id="表单首页" transform="translate(-510.000000, -183.000000)">
            <g id="通用按钮" transform="translate(494.000000, 175.000000)">
                <g id="未归类/复制" transform="translate(16.000000, 8.000000)">
                    <path d="M12,11 L12,4 L12,4 L13,4 C13.5522847,4 14,4.44771525 14,5 L14,13 C14,13.5522847 13.5522847,14 13,14 L5,14 C4.44771525,14 4,13.5522847 4,13 L4,12 L4,12 L11,12 C11.5522847,12 12,11.5522847 12,11 Z" id="矩形备份-3" fill="#949AAE"></path>
                    <path d="M10,1 C10.5522847,1 11,1.44771525 11,2 L11,10 C11,10.5522847 10.5522847,11 10,11 L2,11 C1.44771525,11 1,10.5522847 1,10 L1,2 C1,1.44771525 1.44771525,1 2,1 L10,1 Z M8,7 L4,7 L4,8 L8,8 L8,7 Z M8,4 L4,4 L4,5 L8,5 L8,4 Z" id="形状结合" fill="#949AAE"></path>
                    <g id="编组" transform="translate(4.000000, 4.000000)"></g>
                </g>
            </g>
        </g>
    </g>
</svg>