<?xml version="1.0" encoding="UTF-8"?>
<svg width="16px" height="16px" viewBox="0 0 16 16" version="1.1" xmlns="http://www.w3.org/2000/svg" xmlns:xlink="http://www.w3.org/1999/xlink">
    <title>切片</title>
    <g id="wps-pc-题型" stroke="none" stroke-width="1" fill="none" fill-rule="evenodd">
        <g id="表单首页" transform="translate(-510.000000, -303.000000)" fill="#1488ED" fill-rule="nonzero">
            <g id="通用按钮" transform="translate(494.000000, 175.000000)">
                <g id="未归类/复制" transform="translate(16.000000, 128.000000)">
                    <path d="M7.5,1 C11.0898509,1 14,3.91014913 14,7.5 C14,11.0898509 11.0898509,14 7.5,14 C3.91014913,14 1,11.0898509 1,7.5 C1,3.91014913 3.91014913,1 7.5,1 Z M8,4 L7,4 L7,7 L4,7 L4,8 L7,8 L7,11 L8,11 L8,8 L11,8 L11,7 L8,7 L8,4 Z" id="形状结合"></path>
                </g>
            </g>
        </g>
    </g>
</svg>