<?xml version="1.0" encoding="UTF-8"?>
<svg width="38px" height="38px" viewBox="0 0 38 38" version="1.1" xmlns="http://www.w3.org/2000/svg" xmlns:xlink="http://www.w3.org/1999/xlink">
    <title>切片</title>
    <defs>
        <linearGradient x1="55.8807845%" y1="-236.840096%" x2="50%" y2="126.371779%" id="linearGradient-1">
            <stop stop-color="#67EED9" offset="0%"></stop>
            <stop stop-color="#39C3A4" offset="100%"></stop>
        </linearGradient>
    </defs>
    <g id="多端新建模板页" stroke="none" stroke-width="1" fill="none" fill-rule="evenodd">
        <g id="金山文档-表单选择要创建的场景" transform="translate(-575.000000, -637.000000)">
            <g id="页面/我的文档" transform="translate(277.000000, 156.000000)">
                <g id="编组-10" transform="translate(210.000000, 431.000000)">
                    <g id="引导小圆" transform="translate(88.000000, 50.000000)">
                        <rect id="Rectangle-19" fill="url(#linearGradient-1)" x="0" y="0" width="38" height="38" rx="3"></rect>
                        <rect id="矩形" fill="#FFFFFF" opacity="0.496911337" x="10" y="27" width="4" height="3" rx="1.5"></rect>
                        <rect id="矩形" fill="#FFFFFF" opacity="0.496911337" x="16" y="27" width="12" height="3" rx="1.5"></rect>
                        <path d="M18.5,8 C22.6421356,8 26,11.3578644 26,15.5 C26,17.1048224 25.495956,18.591919 24.6375424,19.8116153 L27.8535562,23.1044967 C27.9640257,23.2175681 27.9640257,23.3981493 27.8535562,23.5112207 L26.5163564,24.8799149 C26.4040427,24.9948738 26.2198018,24.9970183 26.1048428,24.8847045 C26.1032277,24.8831266 26.101631,24.8815299 26.1000531,24.8799149 L22.8823293,21.5871616 C21.6495992,22.4762007 20.1359695,23 18.5,23 C14.3578644,23 11,19.6421356 11,15.5 C11,11.3578644 14.3578644,8 18.5,8 Z M18.5,10.8125 C15.9111652,10.8125 13.8125,12.9111652 13.8125,15.5 C13.8125,18.0888348 15.9111652,20.1875 18.5,20.1875 C21.0888348,20.1875 23.1875,18.0888348 23.1875,15.5 C23.1875,12.9111652 21.0888348,10.8125 18.5,10.8125 Z" id="1" fill="#FFFFFF"></path>
                    </g>
                </g>
            </g>
        </g>
    </g>
</svg>