<?xml version="1.0" encoding="UTF-8"?>
<svg width="38px" height="38px" viewBox="0 0 38 38" version="1.1" xmlns="http://www.w3.org/2000/svg" xmlns:xlink="http://www.w3.org/1999/xlink">
    <title>05 图标/格式图标/文件夹 30px</title>
    <g id="页面-1" stroke="none" stroke-width="1" fill="none" fill-rule="evenodd">
        <g id="1920效果图备份-2" transform="translate(-1598.000000, -198.000000)">
            <g id="头图模块备份-6" transform="translate(1510.000000, 148.000000)">
                <g id="05-图标/格式图标/文件夹-30px" transform="translate(88.000000, 50.000000)">
                    <rect id="矩形" x="0" y="0" width="38" height="38"></rect>
                    <path d="M19.5,16 C20.8807119,16 22,17.1192881 22,18.5 C22,19.8807119 20.8807119,21 19.5,21 C18.1192881,21 17,19.8807119 17,18.5 C17,17.1192881 18.1192881,16 19.5,16 Z" id="矩形" fill="#1488ED" transform="translate(19.500000, 18.500000) rotate(-270.000000) translate(-19.500000, -18.500000) "></path>
                    <path d="M31.5,16 C32.8807119,16 34,17.1192881 34,18.5 C34,19.8807119 32.8807119,21 31.5,21 C30.1192881,21 29,19.8807119 29,18.5 C29,17.1192881 30.1192881,16 31.5,16 Z" id="矩形备份-2" fill="#1488ED" transform="translate(31.500000, 18.500000) rotate(-270.000000) translate(-31.500000, -18.500000) "></path>
                    <path d="M7.5,16 C8.88071187,16 10,17.1192881 10,18.5 C10,19.8807119 8.88071187,21 7.5,21 C6.11928813,21 5,19.8807119 5,18.5 C5,17.1192881 6.11928813,16 7.5,16 Z" id="矩形备份-3" fill="#1488ED" transform="translate(7.500000, 18.500000) rotate(-270.000000) translate(-7.500000, -18.500000) "></path>
                </g>
            </g>
        </g>
    </g>
</svg>