<?xml version="1.0" encoding="UTF-8"?>
<svg width="48px" height="48px" viewBox="0 0 48 48" version="1.1" xmlns="http://www.w3.org/2000/svg" xmlns:xlink="http://www.w3.org/1999/xlink">
    <title>切片</title>
    <g id="首页" stroke="none" stroke-width="1" fill="none" fill-rule="evenodd">
        <g id="新建页面-最低屏幕高度" transform="translate(-552.000000, -416.000000)">
            <g id="编组-5备份-5" transform="translate(482.000000, 396.000000)">
                <g id="新建大图标" transform="translate(70.000000, 20.000000)">
                    <path d="M26.7928932,1.5 L42.5,17.2071068 L42.5,44.4624 C42.5,45.3012101 42.160005,46.0606101 41.6103076,46.6103076 C41.0606101,47.160005 40.3012101,47.5 39.4624,47.5 L39.4624,47.5 L8.5376,47.5 C7.69878992,47.5 6.93938992,47.160005 6.38969244,46.6103076 C5.83999496,46.0606101 5.5,45.3012101 5.5,44.4624 L5.5,44.4624 L5.5,4.5376 C5.5,3.69878992 5.83999496,2.93938992 6.38969244,2.38969244 C6.93938992,1.83999496 7.69878992,1.5 8.5376,1.5 L8.5376,1.5 L26.7928932,1.5 Z" id="矩形备份-2" stroke="#E7E9EB" fill="#F7F7F7"></path>
                    <g id="编组备份" transform="translate(25.000000, 25.707107) rotate(-45.000000) translate(-25.000000, -25.707107) translate(16.500000, 20.207107)" fill="#3CBB7B">
                        <rect id="矩形" x="4.54747351e-13" y="8" width="17" height="3" rx="1.5"></rect>
                        <rect id="矩形备份" x="6.82121026e-13" y="0" width="3" height="11" rx="1.5"></rect>
                    </g>
                    <path d="M27,1 L27,12.578 C27,15.0202032 28.9797968,17 31.422,17 L43,17 L43,17 L27,1 Z" id="路径-38备份" fill="#E6E6E7"></path>
                </g>
            </g>
        </g>
    </g>
</svg>