<?xml version="1.0" encoding="utf-8"?>
<!-- Generator: Adobe Illustrator 23.0.1, SVG Export Plug-In . SVG Version: 6.00 Build 0)  -->
<svg version="1.1" id="图层_1" xmlns="http://www.w3.org/2000/svg" xmlns:xlink="http://www.w3.org/1999/xlink" x="0px" y="0px"
	 viewBox="0 0 38 38" style="enable-background:new 0 0 38 38;" xml:space="preserve">
<style type="text/css">
	.st0{fill-rule:evenodd;clip-rule:evenodd;fill:url(#Rectangle-19_1_);}
	.st1{fill-rule:evenodd;clip-rule:evenodd;fill:#FFFFFF;}
	.st2{fill-rule:evenodd;clip-rule:evenodd;fill:#FFBD12;}
	.st3{opacity:0.6;fill-rule:evenodd;clip-rule:evenodd;fill:#FFFFFF;}
</style>
<title>入口-问卷</title>
<g id="入口-问卷">
	
		<linearGradient id="Rectangle-19_1_" gradientUnits="userSpaceOnUse" x1="-1226.8422" y1="721.5789" x2="-1225.8422" y2="720.5789" gradientTransform="matrix(38 0 0 -38 46620 27420)">
		<stop  offset="0" style="stop-color:#FFD15A"/>
		<stop  offset="1" style="stop-color:#FFB800"/>
	</linearGradient>
	<path id="Rectangle-19" class="st0" d="M3,0h32c1.7,0,3,1.3,3,3v32c0,1.7-1.3,3-3,3H3c-1.7,0-3-1.3-3-3V3C0,1.3,1.3,0,3,0z"/>
	<path id="形状结合" class="st1" d="M9,14h20v12.5c0,0.8-0.7,1.5-1.5,1.5h-17C9.7,28,9,27.3,9,26.5V14L9,14z"/>
	
		<g id="编组" transform="translate(19.000000, 19.207107) rotate(-45.000000) translate(-19.000000, -19.207107) translate(14.500000, 16.207107)">
		<path id="矩形" class="st2" d="M1.1,3.7h6.8C8.5,3.7,9,4.2,9,4.8v0.2C9,5.5,8.5,6,7.9,6H1.1C0.5,6,0,5.5,0,4.9l0-0.2
			C0,4.2,0.5,3.7,1.1,3.7z"/>
		<path id="矩形备份" class="st2" d="M1.1,0h0.1c0.6,0,1.1,0.5,1.1,1.1v3.8C2.3,5.5,1.8,6,1.2,6H1.1C0.5,6,0,5.5,0,4.9V1.1
			C0,0.5,0.5,0,1.1,0z"/>
	</g>
	<path class="st3" d="M10.5,10h17c0.8,0,1.5,0.7,1.5,1.5V14l0,0H9v-2.5C9,10.7,9.7,10,10.5,10z"/>
	<path class="st3" d="M14.5,8C15.3,8,16,8.7,16,9.5V10l0,0h-3V9.5C13,8.7,13.7,8,14.5,8z"/>
	<path id="矩形备份-2" class="st3" d="M23.5,8C24.3,8,25,8.7,25,9.5V10l0,0h-3V9.5C22,8.7,22.7,8,23.5,8z"/>
</g>
</svg>
