<?xml version="1.0" encoding="UTF-8"?>
<svg width="96px" height="96px" viewBox="0 0 96 96" version="1.1" xmlns="http://www.w3.org/2000/svg" xmlns:xlink="http://www.w3.org/1999/xlink">
    <title>00图标/96px/创建/问卷</title>
    <g id="00图标/96px/创建/问卷" stroke="none" stroke-width="1" fill="none" fill-rule="evenodd">
        <g id="编组-21" transform="translate(12.000000, 13.000000)">
            <path d="M0,20.3225806 L72,20.3225806 L72,64.6 C72,67.5823376 69.5823376,70 66.6,70 L5.4,70 C2.41766235,70 7.00303819e-15,67.5823376 0,64.6 L0,20.3225806 L0,20.3225806 Z" id="形状结合" fill="#F7F7F7"></path>
            <g id="编组" transform="translate(36.795495, 39.185443) rotate(-45.000000) translate(-36.795495, -39.185443) translate(21.045495, 29.024153)" fill="#FAC300">
                <rect id="矩形" x="6.36646291e-12" y="13.5483871" width="31.5" height="6.77419355" rx="3.38709677"></rect>
                <rect id="矩形备份" x="0" y="-4.54747351e-13" width="6.75" height="20.3225806" rx="3.375"></rect>
            </g>
            <path d="M5.4,7 L66.6,7 C69.5823376,7 72,9.41766235 72,12.4 L72,21 L72,21 L0,21 L0,12.4 C-1.25340945e-15,9.41766235 2.41766235,7 5.4,7 Z" id="矩形备份" fill="#EDEDED"></path>
            <path d="M19.4,0 L19.6,0 C22.5823376,-5.47846538e-16 25,2.41766235 25,5.4 L25,7 L25,7 L14,7 L14,5.4 C14,2.41766235 16.4176624,5.47846538e-16 19.4,0 Z" id="矩形" fill="#E4E4E4"></path>
            <path d="M52.4,0 L52.6,0 C55.5823376,-5.47846538e-16 58,2.41766235 58,5.4 L58,7 L58,7 L47,7 L47,5.4 C47,2.41766235 49.4176624,5.47846538e-16 52.4,0 Z" id="矩形备份-2" fill="#E4E4E4"></path>
        </g>
    </g>
</svg>