<?xml version="1.0" encoding="UTF-8"?>
<svg width="38px" height="38px" viewBox="0 0 38 38" version="1.1" xmlns="http://www.w3.org/2000/svg" xmlns:xlink="http://www.w3.org/1999/xlink">
    <title>切片</title>
    <defs>
        <linearGradient x1="3.62613076%" y1="0%" x2="95.6080387%" y2="100%" id="linearGradient-1">
            <stop stop-color="#FFA45A" offset="0%"></stop>
            <stop stop-color="#F6871D" offset="100%"></stop>
        </linearGradient>
    </defs>
    <g id="多端新建模板页" stroke="none" stroke-width="1" fill="none" fill-rule="evenodd">
        <g id="金山文档-表单选择要创建的场景" transform="translate(-1307.000000, -417.000000)">
            <g id="页面/我的文档" transform="translate(277.000000, 156.000000)">
                <g id="编组" transform="translate(942.000000, 211.000000)">
                    <g id="05-图标/格式图标/文件夹-30px" transform="translate(88.000000, 50.000000)">
                        <rect id="Rectangle-19" fill="url(#linearGradient-1)" x="0" y="0" width="38" height="38" rx="3.8"></rect>
                        <g id="编组" transform="translate(23.000000, 11.000000)">
                            <rect id="矩形" fill="#FFBB7D" x="0" y="0" width="11" height="16" rx="1.9"></rect>
                            <path d="M5.296,11.624 C5.56266667,11.6186667 5.82933333,11.5866667 6.096,11.528 C6.40533333,11.448 6.69066667,11.3173333 6.952,11.136 C7.18133333,10.9653333 7.368,10.7546667 7.512,10.504 C7.64,10.248 7.70666667,9.97333333 7.712,9.68 C7.71733333,9.30133333 7.60533333,8.96533333 7.376,8.672 C7.14666667,8.41066667 6.86666667,8.22666667 6.536,8.12 C6.824,7.992 7.06666667,7.80266667 7.264,7.552 C7.456,7.28 7.552,6.97333333 7.552,6.632 C7.54666667,6.16266667 7.368,5.77066667 7.016,5.456 C6.81866667,5.29066667 6.59466667,5.16533333 6.344,5.08 C6.06666667,4.99466667 5.78666667,4.94933333 5.504,4.944 C5.184,4.94933333 4.86933333,4.98666667 4.56,5.056 C4.304,5.12 4.06133333,5.21066667 3.832,5.328 L3.84,6.576 C4.032,6.47466667 4.23466667,6.4 4.448,6.352 C4.672,6.29866667 4.89866667,6.26933333 5.128,6.264 C5.25066667,6.26933333 5.37066667,6.28533333 5.488,6.312 C5.58933333,6.344 5.68266667,6.38933333 5.768,6.448 C5.90666667,6.56533333 5.97866667,6.712 5.984,6.888 C5.97866667,7.08533333 5.912,7.256 5.784,7.4 C5.61866667,7.56 5.424,7.63733333 5.2,7.632 L4.712,7.632 L4.712,8.728 L5.208,8.728 C5.44266667,8.73333333 5.65066667,8.81333333 5.832,8.968 C5.98133333,9.11733333 6.05866667,9.296 6.064,9.504 C6.064,9.75466667 5.97066667,9.96266667 5.784,10.128 C5.592,10.2613333 5.38133333,10.3253333 5.152,10.32 C4.94933333,10.32 4.75466667,10.288 4.568,10.224 C4.33866667,10.1386667 4.12533333,10.024 3.928,9.88 L3.408,11.008 C3.97333333,11.4026667 4.60266667,11.608 5.296,11.624 Z" id="3" fill="#F08421" fill-rule="nonzero"></path>
                        </g>
                        <g id="编组" transform="translate(14.000000, 11.000000)">
                            <rect id="矩形" fill="#FDE0C5" x="0" y="0" width="11" height="16" rx="1.9"></rect>
                            <path d="M7.72,11.464 L7.72,10.264 L5.408,10.264 C5.86133333,9.848 6.296,9.40533333 6.712,8.936 C7,8.616 7.23733333,8.26133333 7.424,7.872 C7.584,7.536 7.66933333,7.18133333 7.68,6.808 C7.67466667,6.58933333 7.64266667,6.37333333 7.584,6.16 C7.49866667,5.904 7.36266667,5.68266667 7.176,5.496 C6.97866667,5.30933333 6.74933333,5.17333333 6.488,5.088 C6.184,4.99733333 5.87466667,4.94933333 5.56,4.944 C5.24,4.95466667 4.928,5.008 4.624,5.104 C4.27733333,5.21066667 3.94933333,5.36 3.64,5.552 L3.696,6.76 C3.90933333,6.62133333 4.13866667,6.50666667 4.384,6.416 C4.63466667,6.32533333 4.89066667,6.27466667 5.152,6.264 C5.41866667,6.264 5.66133333,6.33866667 5.88,6.488 C6.04,6.61066667 6.12533333,6.77333333 6.136,6.976 C6.12533333,7.20533333 6.06666667,7.424 5.96,7.632 C5.80533333,7.92 5.62133333,8.18666667 5.408,8.432 C5.17866667,8.704 4.94133333,8.968 4.696,9.224 C4.32266667,9.61333333 3.944,9.992 3.56,10.36 L3.56,11.464 L7.72,11.464 Z" id="2" fill="#F78A23" fill-rule="nonzero"></path>
                        </g>
                        <g id="编组" transform="translate(5.000000, 11.000000)">
                            <rect id="矩形" fill="#FFFFFF" x="0" y="0" width="11" height="16" rx="1.9"></rect>
                            <polygon id="1" fill="#F98F2E" fill-rule="nonzero" points="6.744 11.464 6.744 5.104 5.6 5.104 4.12 6.016 4.12 7.112 5.256 6.696 5.256 11.464"></polygon>
                        </g>
                    </g>
                </g>
            </g>
        </g>
    </g>
</svg>