<?xml version="1.0" encoding="UTF-8"?>
<svg width="16px" height="16px" viewBox="0 0 16 16" version="1.1" xmlns="http://www.w3.org/2000/svg" xmlns:xlink="http://www.w3.org/1999/xlink">
    <title>切片</title>
    <g id="wps-pc-题型" stroke="none" stroke-width="1" fill="none" fill-rule="evenodd">
        <g id="表单首页" transform="translate(-510.000000, -223.000000)" fill="#949AAE" fill-rule="nonzero">
            <g id="通用按钮" transform="translate(494.000000, 175.000000)">
                <g id="未归类/复制" transform="translate(16.000000, 48.000000)">
                    <path d="M13.6,1 C14.3731986,1 15,1.62680135 15,2.4 L15,13.6 C15,14.3731986 14.3731986,15 13.6,15 L2.4,15 C1.62680135,15 1,14.3731986 1,13.6 L1,2.4 C1,1.62680135 1.62680135,1 2.4,1 L13.6,1 Z M11.5,5 L4.5,5 L4.5,6 L7.5,6 L7.5,12 L8.5,12 L8.5,6 L11.5,6 L11.5,5 Z" id="形状结合"></path>
                </g>
            </g>
        </g>
    </g>
</svg>