<?xml version="1.0" encoding="UTF-8"?>
<svg width="56px" height="56px" viewBox="0 0 56 56" version="1.1" xmlns="http://www.w3.org/2000/svg" xmlns:xlink="http://www.w3.org/1999/xlink">
    <title>支持16+信息类型</title>
    <g id="页面-1" stroke="none" stroke-width="1" fill="none" fill-rule="evenodd">
        <g id="01-PC-常用信息管理-个人常用-空备份" transform="translate(-535.000000, -361.000000)" fill="#1C2534" fill-rule="nonzero">
            <g id="编组-10" transform="translate(458.000000, 209.000000)">
                <g id="支持16+信息类型" transform="translate(77.000000, 152.000000)">
                    <g id="app" transform="translate(17.500000, 17.500000)">
                        <path d="M7.92857143,11.8928571 C8.90163619,11.8928571 9.69047619,12.6816971 9.69047619,13.6547619 L9.69047619,19.8214286 C9.69047619,20.7945286 8.90163619,21.5833333 7.92857143,21.5833333 L1.76190476,21.5833333 C0.78884,21.5833333 0,20.7945286 0,19.8214286 L0,13.6547619 C0,12.6816971 0.78884,11.8928571 1.76190476,11.8928571 L7.92857143,11.8928571 Z M19.3809524,11.8928571 C20.3540524,11.8928571 21.1428571,12.6816971 21.1428571,13.6547619 L21.1428571,19.8214286 C21.1428571,20.7945286 20.3540524,21.5833333 19.3809524,21.5833333 L13.2142857,21.5833333 C12.241221,21.5833333 11.452381,20.7945286 11.452381,19.8214286 L11.452381,13.6547619 C11.452381,12.6816971 12.241221,11.8928571 13.2142857,11.8928571 L19.3809524,11.8928571 Z M7.92857143,13.6547619 L1.76190476,13.6547619 L1.76190476,19.8214286 L7.92857143,19.8214286 L7.92857143,13.6547619 Z M19.3809524,13.6547619 L13.2142857,13.6547619 L13.2142857,19.8214286 L19.3809524,19.8214286 L19.3809524,13.6547619 Z M16.297619,0 C19.216919,0 21.5833333,2.36650238 21.5833333,5.28571429 C21.5833333,8.20492619 19.216919,10.5714286 16.297619,10.5714286 C13.3784071,10.5714286 11.0119048,8.20492619 11.0119048,5.28571429 C11.0119048,2.36650238 13.3784071,0 16.297619,0 Z M7.92857143,0.44047619 C8.90163619,0.44047619 9.69047619,1.22931619 9.69047619,2.20238095 L9.69047619,8.36904762 C9.69047619,9.34211238 8.90163619,10.1309524 7.92857143,10.1309524 L1.76190476,10.1309524 C0.78884,10.1309524 0,9.34211238 0,8.36904762 L0,2.20238095 C0,1.22931619 0.78884,0.44047619 1.76190476,0.44047619 L7.92857143,0.44047619 Z M16.297619,1.76190476 C14.351419,1.76190476 12.7738095,3.33956714 12.7738095,5.28571429 C12.7738095,7.23186143 14.351419,8.80952381 16.297619,8.80952381 C18.243819,8.80952381 19.8214286,7.23186143 19.8214286,5.28571429 C19.8214286,3.33956714 18.243819,1.76190476 16.297619,1.76190476 Z M7.92857143,2.20238095 L1.76190476,2.20238095 L1.76190476,8.36904762 L7.92857143,8.36904762 L7.92857143,2.20238095 Z" id="形状结合"></path>
                    </g>
                </g>
            </g>
        </g>
    </g>
</svg>