<?xml version="1.0" encoding="UTF-8"?>
<svg width="56px" height="56px" viewBox="0 0 56 56" version="1.1" xmlns="http://www.w3.org/2000/svg" xmlns:xlink="http://www.w3.org/1999/xlink">
    <title>信息自动填写</title>
    <g id="页面-1" stroke="none" stroke-width="1" fill="none" fill-rule="evenodd" opacity="0.9">
        <g id="01-PC-常用信息管理-个人常用-空备份" transform="translate(-655.000000, -361.000000)" fill="#1C2534" fill-rule="nonzero">
            <g id="编组-10" transform="translate(458.000000, 209.000000)">
                <g id="信息自动填写" transform="translate(197.000000, 152.000000)">
                    <g id="编组" transform="translate(16.916667, 16.916667)">
                        <path d="M22.75,21 L22.75,22.75 L11.3750014,22.75 L11.3750014,21 L22.75,21 Z M14.0458511,2.747185 L19.7218004,8.4231 L6.95093198,21.1939 L0.62825277,22.45845 C0.260910316,22.53195 -0.0629796433,22.208025 0.0104853475,21.8407 L1.27501769,15.517985 L14.0458511,2.747185 Z M14.0458511,5.2220525 L2.88713499,16.3807 L2.08686009,20.382075 L6.08816459,19.5818 L17.2469507,8.4231 L14.0458511,5.2220525 Z M22.7500009,17.5 L22.7500009,19.25 L15.7500009,19.25 L15.7500009,17.5 L22.7500009,17.5 Z M16.7928257,0 L22.468775,5.675915 L21.2311752,6.9133575 L15.5554009,1.2374425 L16.7928257,0 Z" id="形状结合"></path>
                    </g>
                </g>
            </g>
        </g>
    </g>
</svg>