<?xml version="1.0" encoding="UTF-8"?>
<svg width="56px" height="56px" viewBox="0 0 56 56" version="1.1" xmlns="http://www.w3.org/2000/svg" xmlns:xlink="http://www.w3.org/1999/xlink">
    <title>保障信息隐私</title>
    <g id="页面-1" stroke="none" stroke-width="1" fill="none" fill-rule="evenodd">
        <g id="01-PC-常用信息管理-个人常用-空备份" transform="translate(-775.000000, -361.000000)" fill="#1C2534" fill-rule="nonzero">
            <g id="编组-10" transform="translate(458.000000, 209.000000)">
                <g id="保障信息隐私" transform="translate(317.000000, 152.000000)">
                    <g id="secured" transform="translate(18.666667, 18.083333)">
                        <path d="M19.25,0 L19.25,12.3314426 C19.25,14.8266922 17.9494118,17.1388211 15.8238811,18.4226913 L15.8238811,18.4226913 L9.624545,22.1666667 L3.42597885,18.4226913 C1.30050068,17.1388211 0,14.8266922 0,12.3314426 L0,12.3314426 L0,0 L19.25,0 Z M17.5000159,1.76162207 L1.74998409,1.76162207 L1.74998409,12.3314426 C1.74998409,14.2078343 2.7279802,15.9467315 4.32636317,16.9121004 L4.32636317,16.9121004 L9.6245975,20.1124392 L14.9235143,16.9121004 C16.5219498,15.9467315 17.4998409,14.2078343 17.4998409,12.3314426 L17.4998409,12.3314426 L17.5000159,1.76162207 Z M13.5751516,6.42408959 L14.8125653,7.66973255 L8.55637221,13.9676548 L4.43717216,9.82106066 L5.67458591,8.57540007 L8.55635471,11.4763336 L13.5751516,6.42408959 Z" id="形状结合"></path>
                    </g>
                </g>
            </g>
        </g>
    </g>
</svg>